<svg xmlns="http://www.w3.org/2000/svg" viewBox="0 0 558.27 343.95"><defs><style>.cls-1{fill:#fff6e1;}</style></defs><g id="Layer_2" data-name="Layer 2"><g id="Layer_1-2" data-name="Layer 1"><path class="cls-1" d="M558.23,14.81s-5.3-5.1-11,0-8.28,0-14,5.1-5.74-2.27-7-3.68-4.3-8.11-7.17-5.08-5.41,8-6,7.48l-.64-.47s-.95-7.29-3-7.79-4,.5-4.14,0S500.53,0,496.55,0a13.32,13.32,0,0,0-8.44,2.71c-2.39,1.59-7.17-2.07-12.9,2.23s-7.33-2.07-7.33-2.07a15.41,15.41,0,0,0-8.76-.64c-4.62,1.11-11.78.64-17.83-1.43s-8.13,1.59-8.13,1.59-3.5,5-2.54,8.45,1.59,7.16.63,9.39-1.43,5.73-3,5.41-7.81-6.05-9.72-10-10.67-4.46-10.67-4.46a26.79,26.79,0,0,0-9.39,7.64c-4.46,5.58-7.65,4-7.65,4s-3.34.8-.79,4.62-2.55,11-2.55,11S386,42.84,388.89,46s.48,4,.48,4-6.53-.8-9.87-5.1A19.45,19.45,0,0,0,372,39s-1.27-.16,0-3.35-2.87-6.05-5.57-6.05-12.58-.64-14,4-8.76-1.27-11.31-1.59-14.81,2.55-8,9.56S326.46,47,326.46,47s-8.76-1.91-10.83-5.1-9.87,2.71-9.87,2.71-1.91,2-1.06,2.18-.22,2-.22,2-1.16.63,3.3,4S302.57,54,302.57,54s-13.69-1.59-10.29,3.18,8.49,9,8.38,10.41-1.16,3.71-5.73,6.58-1.17,4.35-1.17,4.35a55.1,55.1,0,0,1,9.56,2.66c3.29,1.48,3.82,3.71,5.2,4.35s13,1.91,17.84,2.12,3.18,2.55,2.12,2.87-11.36-.21-28.24,14.55c0,0-2.34,2.76-7.54,1.27s-3.5-4.46-4.35-4.67-2.55-3.82-10.83,2.87c0,0-8.81,0-12-2.34s-6,3.18-6,3.18-4.57,1.38-12.64-.31c0,0-9.55-1.17,0,2.76s7.76,6.69,7.76,6.69a16.28,16.28,0,0,1-12.43,1.59c-6.79-2-8.91-6.69-9.45-6.8s-3.71-3.71-12.21-.53-9,3.72-6.58,7-8.17,3.72-9.34,6.37-7.43,3.61-8.07,5.73-4.57,2.66-6.9,3.29-8.49-.63-13.8.64-18.48,2.66-21.24,2.87-6.79.95-4.46,1.27,39.92-.32,41,1.7,11,1.7,12,3.61,5.63,1.7,4.78,2.87-5.84,1.06-10.3,3.71-1.8,5.21-11.89,3.61-1.8-5-18.47-2.76-16.46,3.54-28.56,3.26-8.82,1.2-8.82,1.2,15.82.85,13.81,3.08-4,2.34-6.16,4-34.72,2.66-50.86,2.55c0,0-17.73.32-1.48,2.13s14.54,4.46,19,5,11.68,0,10,.53-11.25,1.59-8.49,1.8,11.78,4.14,17,2.87,14,4.83,32.32,4.35,40.93-8.92,50.81-7.16,10.35-5.74,16.24-6.38,47.14,6.22,93.64,4.94,37.91.32,37.27,1.12-4.3,2.7-7,6.53-18.79,2.54-21.82,3.18-7.16,1.75-8.91,3.35S283,187.5,283,187.5s-14.6.79,1,2.81,52,2.39,59,1.43,33.92-3.5,41.88-9.07,8-8.28,33.92-9.72,58.77-3.34,78-14,15.29-8.12-8.6-8.76-30.69-5.42-20.18-7,14.87,2.44,18.8.53,1.59-6.16,4.35-7,8.6-4.14,5.73-7.21-7.11-3.4-9.23-3.93-7-3.19.53-4.25,16,2.12,22.61-2.34,5.52,1.6,13.38.32,20.81-14.75,34-12.31Z"/><path class="cls-1" d="M558.23,174.7s-16.35-11.46-23.14-10.19-10.62-5.94-14.44-5.09-8.92-1.42-12.74-.07-13.27,9-19,9.62a20.67,20.67,0,0,0-14.49,8.92c-3.66,5.1-17,0-17,0s-6.85-4.46-19.43,5.73c0,0-4.93,2.87-12.9.8s-6.21.79-7,1.43-9.88-2-16.57,6.4-12.58,12.87-17.83,13.51-14.34,1.27-18.16,2.71-8.12,2.39-9.08,10-7,10.83-9.55,12.9-5.26,2.55,0,5.25-1.4,4-3,4-14.35-.32-18.81,3.66-2.71,4.3-6.21,5.57-9.56.43-3.19,3.51,3.08,3.18-1.38,3.5-7.75-2.65-10.4-2.55-12-4-24.31,1.17-31.11,1.75-36.85,1.4-19.64,1.68-24.95,3.59,2.34.32,11.58,2.65-1.17,2-4.14,1.7-35.46-4-37.27-2.65,0,2.6-.48,3.24-16.35-.53-18.52,1.06.74,5.36-9.67,4.09c0,0-7.85-3.3-14.54-1.6a5.84,5.84,0,0,1-4.67-1.7c-2.34-2.12-5.84-1.8-8-1.06a35.85,35.85,0,0,1-18.26,1c-9.13-1.81-6.26,1.8-6.47,2.55s-3.61,1.38-10-.75-13.49-2.86-14.87-2.54-5.2-.11,2.23,3.39,9.45,6.48,17.1,8.39-11.26,5.84-13.06,5.95-13.27,2-19.43,1.38-12-3.93-7.22,1.59-6.69,5.84-8,5.73-7.86-.21-10.73,1.06-5.31-1.59-7.75-1.8-3.93,1.5-5.09,2.13-2.45.52-4.89-.43-9.13-1.06-6.79.21,4.77,6.16,1.06,6.69-13.49,1.91-17.52.95-2.34.53,0,2.34,8.71,6.69,20.17,6.9c0,0,5.1.21,7.43,2.87s6.8,2.23,8,1.91,8.81-2.66,12.74-1.59,6.26,2.54,24.31,4.14,9.34,7.85,19.54,7.85,30.79-8.6,38.22-6.26,30.26-3.4,37.58-3.72,15.61,6.69,42.68-.32,45.87-2.86,57.65-4.14,67.21,2.23,74.54,9.24,7,5.63,11.14,5.2,22.3-.74,30.58,4-3.18,4.14-5.41,4.78-12.11,1.27,5.41,2.86,75.49,11.79,108.93,1.91,36.31-20.7,50-20.38,12.31,0,12.31,0Z"/></g></g></svg>